<svg xmlns="http://www.w3.org/2000/svg" xmlns:xlink="http://www.w3.org/1999/xlink" width="200" height="200" viewBox="0 0 500 500">
  <defs>
    <style>
      .cls-1 {
        fill: #0c0963;
        filter: url(#filter);
      }

      .cls-2 {
        fill: #fff;
        fill-rule: evenodd;
      }
    </style>
    <filter id="filter" x="-18" y="-18" width="537" height="537" filterUnits="userSpaceOnUse">
      <feOffset result="offset" in="SourceAlpha"/>
      <feGaussianBlur result="blur" stdDeviation="4.583"/>
      <feFlood result="flood" flood-opacity="0.85"/>
      <feComposite result="composite" operator="in" in2="blur"/>
      <feBlend result="blend" in="SourceGraphic"/>
    </filter>
  </defs>
  <circle class="cls-1" cx="250" cy="250" r="247.219"/>
  <path id="s" class="cls-2" d="M241.985,105.535q-33.732,0-58.425,11.5t-37.525,31a75.82,75.82,0,0,0-12.825,42.5q0,26,13.3,41.25a78.688,78.688,0,0,0,31.588,22.25q18.28,7.008,47.262,13.5,21.375,5,32.775,8.75a53.268,53.268,0,0,1,19,10.5q7.593,6.75,7.6,17.75,0,13.5-11.4,22.25t-29.925,8.75q-18.525,0-29.45-9t-12.825-26h-68.4q2.85,43.5,32.775,66.75t77.425,23.25q30.393,0,54.625-10.75t38-29.75q13.772-19,13.775-44,0-27.492-13.3-43.25a78.462,78.462,0,0,0-32.062-23q-18.77-7.242-47.738-13.75-20.907-4.992-32.062-8.75a55.761,55.761,0,0,1-18.763-10.25q-7.6-6.492-7.6-17.5a25.2,25.2,0,0,1,10.45-21q10.443-7.992,29.45-8,38,0,40.85,35h68.4q-1.9-41.5-30.875-65.75t-74.1-24.25h0Z"/>
</svg>
